<svg xmlns="http://www.w3.org/2000/svg" width="744" height="599" viewBox="121 200 744 599" fill="none" xmlns:c2pa="http://c2pa.org/manifest"><metadata><c2pa:manifest>AAAWgmp1bWIAAAAeanVtZGMycGEAEQAQgAAAqgA4m3EDYzJwYQAAABZcanVtYgAAAEdqdW1kYzJtYQARABCAAACqADibcQN1cm46YzJwYToxYzQ5Y2IyOS03NmM2LTQ2MjctOTc2ZC03NjdmOGY3YzFjMTUAAAADl2p1bWIAAAApanVtZGMyYXMAEQAQgAAAqgA4m3EDYzJwYS5hc3NlcnRpb25zAAAAALxqdW1iAAAARGp1bWRjYm9yABEAEIAAAKoAOJtxE2MycGEuaW5ncmVkaWVudC52MwAAAAAYYzJzaDy3HaHu5iIpyJVAjeUnKJMAAABwY2JvcqNpZGM6Zm9ybWF0bWltYWdlL3N2Zyt4bWxqaW5zdGFuY2VJRHgseG1wOmlpZDo2NDgwMGJjNS0yMGQ2LTQyZWQtOTkxYi1iYzU5MzNhNzcwMTFscmVsYXRpb25zaGlwaHBhcmVudE9mAAAB4mp1bWIAAABBanVtZGNib3IAEQAQgAAAqgA4m3ETYzJwYS5hY3Rpb25zLnYyAAAAABhjMnNow3CMAdJgNMnCX5QOrA/e7AAAAZljYm9yomdhY3Rpb25zgqJmYWN0aW9ua2MycGEub3BlbmVkanBhcmFtZXRlcnOha2luZ3JlZGllbnRzgaJjdXJseC1zZWxmI2p1bWJmPWMycGEuYXNzZXJ0aW9ucy9jMnBhLmluZ3JlZGllbnQudjNkaGFzaFggCFQ5pl0RRfuZ3R0xUuAzYb3Sh0LYR6zUvkcM/vIAJeukZmFjdGlvbngdY29tLmFudGhyb3BpYy5jbGF1ZGUucHJvdmlkZWRqcGFyYW1ldGVyc6F4H2NvbS5hbnRocm9waWMub3JpZ2luLWNvbmZpZGVuY2VndW5rbm93bmtkZXNjcmlwdGlvbnhmQ2xhdWRlIHByb3ZpZGVkIHRoaXMgZmlsZSBhdCB0aGUgcmVxdWVzdCBvZiBhIHVzZXIgYW5kIG1heSBoYXZlIGNyZWF0ZWQgb3IgbW9kaWZpZWQgdGhlIGZpbGUgY29udGVudHMubXNvZnR3YXJlQWdlbnShZG5hbWVmQ2xhdWRlcmFsbEFjdGlvbnNJbmNsdWRlZPUAAADIanVtYgAAAEBqdW1kY2JvcgARABCAAACqADibcRNjMnBhLmhhc2guZGF0YQAAAAAYYzJzaC19PJ/lWOehO7VhNc3UhsUAAACAY2JvcqVjYWxnZnNoYTI1NmNwYWRNAAAAAAAAAAAAAAAAAGRoYXNoWCDYuVUAs5larubl62Gm4hq5bH+/H0+C+gAELSCnk4oYNWRuYW1lbmp1bWJmIG1hbmlmZXN0amV4Y2x1c2lvbnOBomVzdGFydBimZmxlbmd0aBkeBAAAAj5qdW1iAAAAJ2p1bWRjMmNsABEAEIAAAKoAOJtxA2MycGEuY2xhaW0udjIAAAACD2Nib3KlY2FsZ2ZzaGEyNTZpc2lnbmF0dXJleE1zZWxmI2p1bWJmPS9jMnBhL3VybjpjMnBhOjFjNDljYjI5LTc2YzYtNDYyNy05NzZkLTc2N2Y4ZjdjMWMxNS9jMnBhLnNpZ25hdHVyZWppbnN0YW5jZUlEeCx4bXA6aWlkOjI2MWY0M2JmLTQxMTItNDNhZi05NmFkLTNkMTBjYTBlMDdlYnJjcmVhdGVkX2Fzc2VydGlvbnODomN1cmx4LXNlbGYjanVtYmY9YzJwYS5hc3NlcnRpb25zL2MycGEuaW5ncmVkaWVudC52M2RoYXNoWCAIVDmmXRFF+5ndHTFS4DNhvdKHQthHrNS+Rwz+8gAl66JjdXJseCpzZWxmI2p1bWJmPWMycGEuYXNzZXJ0aW9ucy9jMnBhLmFjdGlvbnMudjJkaGFzaFggFl+0R0aUM7r1cEbxZwINLPbFFRlJw4P59/7Fck6a0k+iY3VybHgpc2VsZiNqdW1iZj1jMnBhLmFzc2VydGlvbnMvYzJwYS5oYXNoLmRhdGFkaGFzaFgg/Tv5rb3zXzHnbyO1b36UDwvyHBAyCOWSyUZYU77p10R0Y2xhaW1fZ2VuZXJhdG9yX2luZm+jZG5hbWVvQW50aHJvcGljIEZpbGVzZ3ZlcnNpb25lMS4wLjBrc3BlY1ZlcnNpb25lMi40LjAAABA4anVtYgAAAChqdW1kYzJjcwARABCAAACqADibcQNjMnBhLnNpZ25hdHVyZQAAABAIY2JvctKEWQISogEmGCFZAgowggIGMIIBjaADAgECAhRA5aAK7sI50L64g/oGQgU9Z1UTADAKBggqhkjOPQQDAzBJMRcwFQYDVQQKEw5BbnRocm9waWMsIFBCQzEuMCwGA1UEAxMlQW50aHJvcGljIENvbnRlbnQgQ3JlZGVudGlhbHMgUm9vdCBDQTAeFw0yNjA4MDcxODQzNTZaFw0yODA4MDYxOTQzNTZaMEQxFzAVBgNVBAoTDkFudGhyb3BpYywgUEJDMSkwJwYDVQQDEyBBbnRocm9waWMgQ2xhdWRlIENvbnRlbnQgU2lnbmluZzBZMBMGByqGSM49AgEGCCqGSM49AwEHA0IABJh6CmvLUBgFFNU0vUKlOVtE6djd17L5SuwX0LemFisBM3dkd/3cyjxFA3Qo5S46fX0/ihY0VZ7mfb9KF703t5OjWDBWMA4GA1UdDwEB/wQEAwIHgDAVBgNVHSUEDjAMBgorBgEEAYPoXgIBMAwGA1UdEwEB/wQCMAAwHwYDVR0jBBgwFoAUzlHiBIFOZFsj+OPEz5o+nMHXXMIwCgYIKoZIzj0EAwMDZwAwZAIwMXMdFJ4BetLLVY7ORuE9noqbbAZOZn/aArXyTwFAZfKrPzxF2vPoJNf1+UCdg1XGAjBwX1zd9WGqYkqmL5SFqw1QySjr1zJfpJM9+1rdDwSPLMOPOjKuiXjoU/pUUeG9RwmhY3BhZFkNngAAAAAAAAAAAAAAAAAAAAAAAAAAAAAAAAAAAAAAAAAAAAAAAAAAAAAAAAAAAAAAAAAAAAAAAAAAAAAAAAAAAAAAAAAAAAAAAAAAAAAAAAAAAAAAAAAAAAAAAAAAAAAAAAAAAAAAAAAAAAAAAAAAAAAAAAAAAAAAAAAAAAAAAAAAAAAAAAAAAAAAAAAAAAAAAAAAAAAAAAAAAAAAAAAAAAAAAAAAAAAAAAAAAAAAAAAAAAAAAAAAAAAAAAAAAAAAAAAAAAAAAAAAAAAAAAAAAAAAAAAAAAAAAAAAAAAAAAAAAAAAAAAAAAAAAAAAAAAAAAAAAAAAAAAAAAAAAAAAAAAAAAAAAAAAAAAAAAAAAAAAAAAAAAAAAAAAAAAAAAAAAAAAAAAAAAAAAAAAAAAAAAAAAAAAAAAAAAAAAAAAAAAAAAAAAAAAAAAAAAAAAAAAAAAAAAAAAAAAAAAAAAAAAAAAAAAAAAAAAAAAAAAAAAAAAAAAAAAAAAAAAAAAAAAAAAAAAAAAAAAAAAAAAAAAAAAAAAAAAAAAAAAAAAAAAAAAAAAAAAAAAAAAAAAAAAAAAAAAAAAAAAAAAAAAAAAAAAAAAAAAAAAAAAAAAAAAAAAAAAAAAAAAAAAAAAAAAAAAAAAAAAAAAAAAAAAAAAAAAAAAAAAAAAAAAAAAAAAAAAAAAAAAAAAAAAAAAAAAAAAAAAAAAAAAAAAAAAAAAAAAAAAAAAAAAAAAAAAAAAAAAAAAAAAAAAAAAAAAAAAAAAAAAAAAAAAAAAAAAAAAAAAAAAAAAAAAAAAAAAAAAAAAAAAAAAAAAAAAAAAAAAAAAAAAAAAAAAAAAAAAAAAAAAAAAAAAAAAAAAAAAAAAAAAAAAAAAAAAAAAAAAAAAAAAAAAAAAAAAAAAAAAAAAAAAAAAAAAAAAAAAAAAAAAAAAAAAAAAAAAAAAAAAAAAAAAAAAAAAAAAAAAAAAAAAAAAAAAAAAAAAAAAAAAAAAAAAAAAAAAAAAAAAAAAAAAAAAAAAAAAAAAAAAAAAAAAAAAAAAAAAAAAAAAAAAAAAAAAAAAAAAAAAAAAAAAAAAAAAAAAAAAAAAAAAAAAAAAAAAAAAAAAAAAAAAAAAAAAAAAAAAAAAAAAAAAAAAAAAAAAAAAAAAAAAAAAAAAAAAAAAAAAAAAAAAAAAAAAAAAAAAAAAAAAAAAAAAAAAAAAAAAAAAAAAAAAAAAAAAAAAAAAAAAAAAAAAAAAAAAAAAAAAAAAAAAAAAAAAAAAAAAAAAAAAAAAAAAAAAAAAAAAAAAAAAAAAAAAAAAAAAAAAAAAAAAAAAAAAAAAAAAAAAAAAAAAAAAAAAAAAAAAAAAAAAAAAAAAAAAAAAAAAAAAAAAAAAAAAAAAAAAAAAAAAAAAAAAAAAAAAAAAAAAAAAAAAAAAAAAAAAAAAAAAAAAAAAAAAAAAAAAAAAAAAAAAAAAAAAAAAAAAAAAAAAAAAAAAAAAAAAAAAAAAAAAAAAAAAAAAAAAAAAAAAAAAAAAAAAAAAAAAAAAAAAAAAAAAAAAAAAAAAAAAAAAAAAAAAAAAAAAAAAAAAAAAAAAAAAAAAAAAAAAAAAAAAAAAAAAAAAAAAAAAAAAAAAAAAAAAAAAAAAAAAAAAAAAAAAAAAAAAAAAAAAAAAAAAAAAAAAAAAAAAAAAAAAAAAAAAAAAAAAAAAAAAAAAAAAAAAAAAAAAAAAAAAAAAAAAAAAAAAAAAAAAAAAAAAAAAAAAAAAAAAAAAAAAAAAAAAAAAAAAAAAAAAAAAAAAAAAAAAAAAAAAAAAAAAAAAAAAAAAAAAAAAAAAAAAAAAAAAAAAAAAAAAAAAAAAAAAAAAAAAAAAAAAAAAAAAAAAAAAAAAAAAAAAAAAAAAAAAAAAAAAAAAAAAAAAAAAAAAAAAAAAAAAAAAAAAAAAAAAAAAAAAAAAAAAAAAAAAAAAAAAAAAAAAAAAAAAAAAAAAAAAAAAAAAAAAAAAAAAAAAAAAAAAAAAAAAAAAAAAAAAAAAAAAAAAAAAAAAAAAAAAAAAAAAAAAAAAAAAAAAAAAAAAAAAAAAAAAAAAAAAAAAAAAAAAAAAAAAAAAAAAAAAAAAAAAAAAAAAAAAAAAAAAAAAAAAAAAAAAAAAAAAAAAAAAAAAAAAAAAAAAAAAAAAAAAAAAAAAAAAAAAAAAAAAAAAAAAAAAAAAAAAAAAAAAAAAAAAAAAAAAAAAAAAAAAAAAAAAAAAAAAAAAAAAAAAAAAAAAAAAAAAAAAAAAAAAAAAAAAAAAAAAAAAAAAAAAAAAAAAAAAAAAAAAAAAAAAAAAAAAAAAAAAAAAAAAAAAAAAAAAAAAAAAAAAAAAAAAAAAAAAAAAAAAAAAAAAAAAAAAAAAAAAAAAAAAAAAAAAAAAAAAAAAAAAAAAAAAAAAAAAAAAAAAAAAAAAAAAAAAAAAAAAAAAAAAAAAAAAAAAAAAAAAAAAAAAAAAAAAAAAAAAAAAAAAAAAAAAAAAAAAAAAAAAAAAAAAAAAAAAAAAAAAAAAAAAAAAAAAAAAAAAAAAAAAAAAAAAAAAAAAAAAAAAAAAAAAAAAAAAAAAAAAAAAAAAAAAAAAAAAAAAAAAAAAAAAAAAAAAAAAAAAAAAAAAAAAAAAAAAAAAAAAAAAAAAAAAAAAAAAAAAAAAAAAAAAAAAAAAAAAAAAAAAAAAAAAAAAAAAAAAAAAAAAAAAAAAAAAAAAAAAAAAAAAAAAAAAAAAAAAAAAAAAAAAAAAAAAAAAAAAAAAAAAAAAAAAAAAAAAAAAAAAAAAAAAAAAAAAAAAAAAAAAAAAAAAAAAAAAAAAAAAAAAAAAAAAAAAAAAAAAAAAAAAAAAAAAAAAAAAAAAAAAAAAAAAAAAAAAAAAAAAAAAAAAAAAAAAAAAAAAAAAAAAAAAAAAAAAAAAAAAAAAAAAAAAAAAAAAAAAAAAAAAAAAAAAAAAAAAAAAAAAAAAAAAAAAAAAAAAAAAAAAAAAAAAAAAAAAAAAAAAAAAAAAAAAAAAAAAAAAAAAAAAAAAAAAAAAAAAAAAAAAAAAAAAAAAAAAAAAAAAAAAAAAAAAAAAAAAAAAAAAAAAAAAAAAAAAAAAAAAAAAAAAAAAAAAAAAAAAAAAAAAAAAAAAAAAAAAAAAAAAAAAAAAAAAAAAAAAAAAAAAAAAAAAAAAAAAAAAAAAAAAAAAAAAAAAAAAAAAAAAAAAAAAAAAAAAAAAAAAAAAAAAAAAAAAAAAAAAAAAAAAAAAAAAAAAAAAAAAAAAAAAAAAAAAAAAAAAAAAAAAAAAAAAAAAAAAAAAAAAAAAAAAAAAAAAAAAAAAAAAAAAAAAAAAAAAAAAAAAAAAAAAAAAAAAAAAAAAAAAAAAAAAAAAAAAAAAAAAAAAAAAAAAAAAAAAAAAAAAAAAAAAAAAAAAAAAAAAAAAAAAAAAAAAAAAAAAAAAAAAAAAAAAAAAAAAAAAAAAAAAAAAAAAAAAAAAAAAAAAAAAAAAAAAAAAAAAAAAAAAAAAAAAAAAAAAAAAAAAAAAAAAAAAAAAAAAAAAAAAAAAAAAAAAAAAAAAAAAAAAAAAAAAAAAAAAAAAAAAAAAAAAAAAAAAAAAAAAAAAAAAAAAAAAAAAAAAAAAAAAAAAAAAAAAAAAAAAAAAAAAAAAAAAAAAAAAAAAAAAAAAAAAAAAAAAAAAAAAAAAAAAAAAAAAAAAAAAAAAAAAAAAAAAAAAAAAAAAAAAAAAAAAAAAAAAAAAAAAAAAAAAAAAAAAAAAAAAAAAAAAAAAAAAAAAAAAAAAAAAAAAAAAAAAAAAAAAAAAAAAAAAAAAAAAAAAAAAAAAAAAAAAAAAAAAAAAAAAAAAAAAAAAAAAAAAAAAAAAAAAAAAAAAAAAAAAAAAAAAAAAAAAAAAAAAAAAAAAAAAAAAAAAAAAAAAAAAAAAAAAAAAAAAAAAAAAAAAAAAAAAAAAAAAAAAAAAAAAAAAAAAAAAAAAAAAAAAAAAAAAAAAAAAAAAAAAAAAAAAAAAAAAAAAAAAAAAAAAAAAAAAAAAAAAAAAAAAAAAAAAAAAAAAAAAAAAAAAAAAAAAAAAAAAAAAAAAAAAAAAAAAAAAAAAAAAAAAAAAAAAAAAAAAAAAAAAAAAAAAAAAAAAAAAAAAAAAAAAAAAAAAAAAAAAAAAAAAAAAAAAAAAAAAAAAAAAAAAAAAAAAAAAAAAAAAAAAAAAAAAAAAAAAAAAAAAAAAAAAAAAAAAAAAAAAAAAAAAAAAAAAAAAAAAAAAAAAAAAAAAAAAAAAAAAAAAAAAAAAAAAAAAAAAAAAAAAAAAAAAAAAAAAAAAAAAAAAAAAAAAAAAAAAAAAAAAAAAAAAAAAAAAAAAAAAAAAAAAAAAAAAAAAAAAAAAAAAAAAAAAAAAAAAAAAAAAAAAAAAAAAAAAAAAAAAAAAAAAAAAAAAAAAAAAAAAAAAAAAAAAAAAAAAAAAAAAAAAAAAAAAAAAAAAAAAAAAAAAAAAAAAAAAAAAAAAAAAAAAAAAAAAAAAAAAAAAAAAAAAAAAAAAAAAAAAAAAAAAAAAAAAAAAAAAAAAAAAAAAAAAAAAAAAAAAAAAAAAAAAAAAAAAAAAAAAAAAAAAAAAAAAAAAAAAAAAAAAAAAAAAAAAAAAAAAAAAAAAAAAAAAAAAAAAAPZYQDPGYFsCTV8TBrQqZ8cMvtmiwc2pbVUTCh6nD2muqzUUzFqbv2Dwr2XMcrlRPdsGPNXgz1AYvlNn6tpTtNvVT18=</c2pa:manifest></metadata><defs>
<filter id="filter0_d_6605_17633" x="121.865" y="404.994" width="740.271" height="206.013" filterUnits="userSpaceOnUse" color-interpolation-filters="sRGB">
<feFlood flood-opacity="0" result="BackgroundImageFix"></feFlood>
<feColorMatrix in="SourceAlpha" type="matrix" values="0 0 0 0 0 0 0 0 0 0 0 0 0 0 0 0 0 0 127 0" result="hardAlpha"></feColorMatrix>
<feOffset dx="-8" dy="8"></feOffset>
<feGaussianBlur stdDeviation="8"></feGaussianBlur>
<feComposite in2="hardAlpha" operator="out"></feComposite>
<feColorMatrix type="matrix" values="0 0 0 0 0 0 0 0 0 0 0 0 0 0 0 0 0 0 0.15 0"></feColorMatrix>
<feBlend mode="normal" in2="BackgroundImageFix" result="effect1_dropShadow_6605_17633"></feBlend>
<feBlend mode="normal" in="SourceGraphic" in2="effect1_dropShadow_6605_17633" result="shape"></feBlend>
</filter>
<filter id="filter8_d_6605_17633" x="377.023" y="553.596" width="233.444" height="101.877" filterUnits="userSpaceOnUse" color-interpolation-filters="sRGB">
<feFlood flood-opacity="0" result="BackgroundImageFix"></feFlood>
<feColorMatrix in="SourceAlpha" type="matrix" values="0 0 0 0 0 0 0 0 0 0 0 0 0 0 0 0 0 0 127 0" result="hardAlpha"></feColorMatrix>
<feOffset dx="-8" dy="8"></feOffset>
<feGaussianBlur stdDeviation="8"></feGaussianBlur>
<feComposite in2="hardAlpha" operator="out"></feComposite>
<feColorMatrix type="matrix" values="0 0 0 0 0 0 0 0 0 0 0 0 0 0 0 0 0 0 0.15 0"></feColorMatrix>
<feBlend mode="normal" in2="BackgroundImageFix" result="effect1_dropShadow_6605_17633"></feBlend>
<feBlend mode="normal" in="BackgroundImageFix" in2="effect1_dropShadow_6605_17633" result="BackgroundImageFix"></feBlend>
<feBlend mode="normal" in="SourceGraphic" in2="BackgroundImageFix" result="shape"></feBlend>
</filter>
<clipPath id="bgblur_0_6605_17633_clip_path" transform="translate(-377.023 -553.596)"><rect x="401.023" y="565.086" width="197.954" height="66.3869" rx="33.1935"></rect>
</clipPath><filter id="filter9_d_6605_17633" x="208.182" y="636.542" width="197.995" height="145.995" filterUnits="userSpaceOnUse" color-interpolation-filters="sRGB">
<feFlood flood-opacity="0" result="BackgroundImageFix"></feFlood>
<feColorMatrix in="SourceAlpha" type="matrix" values="0 0 0 0 0 0 0 0 0 0 0 0 0 0 0 0 0 0 127 0" result="hardAlpha"></feColorMatrix>
<feOffset dx="-8" dy="8"></feOffset>
<feGaussianBlur stdDeviation="8"></feGaussianBlur>
<feComposite in2="hardAlpha" operator="out"></feComposite>
<feColorMatrix type="matrix" values="0 0 0 0 0 0 0 0 0 0 0 0 0 0 0 0 0 0 0.15 0"></feColorMatrix>
<feBlend mode="normal" in2="BackgroundImageFix" result="effect1_dropShadow_6605_17633"></feBlend>
<feBlend mode="normal" in="SourceGraphic" in2="effect1_dropShadow_6605_17633" result="shape"></feBlend>
</filter>
<clipPath id="bgblur_1_6605_17633_clip_path" transform="translate(-231.075 -643.434)"><rect x="245.181" y="657.54" width="139.998" height="87.998" rx="18.3326"></rect>
</clipPath><filter id="filter11_d_6605_17633" x="576.823" y="636.542" width="198.995" height="145.995" filterUnits="userSpaceOnUse" color-interpolation-filters="sRGB">
<feFlood flood-opacity="0" result="BackgroundImageFix"></feFlood>
<feColorMatrix in="SourceAlpha" type="matrix" values="0 0 0 0 0 0 0 0 0 0 0 0 0 0 0 0 0 0 127 0" result="hardAlpha"></feColorMatrix>
<feOffset dx="-8" dy="8"></feOffset>
<feGaussianBlur stdDeviation="8"></feGaussianBlur>
<feComposite in2="hardAlpha" operator="out"></feComposite>
<feColorMatrix type="matrix" values="0 0 0 0 0 0 0 0 0 0 0 0 0 0 0 0 0 0 0.15 0"></feColorMatrix>
<feBlend mode="normal" in2="BackgroundImageFix" result="effect1_dropShadow_6605_17633"></feBlend>
<feBlend mode="normal" in="SourceGraphic" in2="effect1_dropShadow_6605_17633" result="shape"></feBlend>
</filter>
<clipPath id="bgblur_2_6605_17633_clip_path" transform="translate(-599.715 -643.434)"><rect x="613.821" y="657.54" width="140.998" height="87.998" rx="18.3326"></rect>
</clipPath><filter id="filter13_d_6605_17633" x="208.182" y="233.463" width="198.995" height="145.995" filterUnits="userSpaceOnUse" color-interpolation-filters="sRGB">
<feFlood flood-opacity="0" result="BackgroundImageFix"></feFlood>
<feColorMatrix in="SourceAlpha" type="matrix" values="0 0 0 0 0 0 0 0 0 0 0 0 0 0 0 0 0 0 127 0" result="hardAlpha"></feColorMatrix>
<feOffset dx="-8" dy="8"></feOffset>
<feGaussianBlur stdDeviation="8"></feGaussianBlur>
<feComposite in2="hardAlpha" operator="out"></feComposite>
<feColorMatrix type="matrix" values="0 0 0 0 0 0 0 0 0 0 0 0 0 0 0 0 0 0 0.15 0"></feColorMatrix>
<feBlend mode="normal" in2="BackgroundImageFix" result="effect1_dropShadow_6605_17633"></feBlend>
<feBlend mode="normal" in="SourceGraphic" in2="effect1_dropShadow_6605_17633" result="shape"></feBlend>
</filter>
<clipPath id="bgblur_3_6605_17633_clip_path" transform="translate(-231.075 -240.356)"><rect x="245.181" y="254.462" width="140.998" height="87.998" rx="18.3326"></rect>
</clipPath><filter id="filter15_d_6605_17633" x="576.823" y="233.463" width="198.995" height="145.995" filterUnits="userSpaceOnUse" color-interpolation-filters="sRGB">
<feFlood flood-opacity="0" result="BackgroundImageFix"></feFlood>
<feColorMatrix in="SourceAlpha" type="matrix" values="0 0 0 0 0 0 0 0 0 0 0 0 0 0 0 0 0 0 127 0" result="hardAlpha"></feColorMatrix>
<feOffset dx="-8" dy="8"></feOffset>
<feGaussianBlur stdDeviation="8"></feGaussianBlur>
<feComposite in2="hardAlpha" operator="out"></feComposite>
<feColorMatrix type="matrix" values="0 0 0 0 0 0 0 0 0 0 0 0 0 0 0 0 0 0 0.15 0"></feColorMatrix>
<feBlend mode="normal" in2="BackgroundImageFix" result="effect1_dropShadow_6605_17633"></feBlend>
<feBlend mode="normal" in="SourceGraphic" in2="effect1_dropShadow_6605_17633" result="shape"></feBlend>
</filter>
<clipPath id="bgblur_4_6605_17633_clip_path" transform="translate(-599.715 -240.356)"><rect x="613.821" y="254.462" width="140.998" height="87.998" rx="18.3326"></rect>
</clipPath><linearGradient id="paint0_linear_6605_17633" x1="500.001" y1="211.073" x2="500.001" y2="788.928" gradientUnits="userSpaceOnUse">
<stop stop-color="#F71963" stop-opacity="0"></stop>
<stop offset="0.5" stop-color="#F71963"></stop>
<stop offset="1" stop-color="#F71963" stop-opacity="0"></stop>
</linearGradient>
<linearGradient id="paint1_linear_6605_17633" x1="232.136" y1="413.728" x2="232.136" y2="586.272" gradientUnits="userSpaceOnUse">
<stop stop-color="white" stop-opacity="0.2"></stop>
<stop offset="1" stop-color="white" stop-opacity="0.7"></stop>
</linearGradient>
<linearGradient id="paint2_linear_6605_17633" x1="54.8542" y1="577.134" x2="309.271" y2="577.134" gradientUnits="userSpaceOnUse">
<stop stop-color="white" stop-opacity="0.2"></stop>
<stop offset="1" stop-color="#B6CDF1"></stop>
</linearGradient>
<linearGradient id="paint3_linear_6605_17633" x1="410.223" y1="413.728" x2="410.223" y2="586.272" gradientUnits="userSpaceOnUse">
<stop stop-color="white" stop-opacity="0.2"></stop>
<stop offset="1" stop-color="white" stop-opacity="0.7"></stop>
</linearGradient>
<linearGradient id="paint4_linear_6605_17633" x1="589.043" y1="412.994" x2="589.043" y2="587.006" gradientUnits="userSpaceOnUse">
<stop stop-color="white" stop-opacity="0.2"></stop>
<stop offset="1" stop-color="white" stop-opacity="0.7"></stop>
</linearGradient>
<linearGradient id="paint5_linear_6605_17633" x1="410.251" y1="577.791" x2="666.834" y2="577.791" gradientUnits="userSpaceOnUse">
<stop stop-color="white" stop-opacity="0.2"></stop>
<stop offset="1" stop-color="white" stop-opacity="0.87451"></stop>
</linearGradient>
<linearGradient id="paint6_linear_6605_17633" x1="767.864" y1="413.728" x2="767.864" y2="586.272" gradientUnits="userSpaceOnUse">
<stop stop-color="white" stop-opacity="0.2"></stop>
<stop offset="1" stop-color="white" stop-opacity="0.7"></stop>
</linearGradient>
<linearGradient id="paint7_linear_6605_17633" x1="590.582" y1="577.134" x2="844.999" y2="577.134" gradientUnits="userSpaceOnUse">
<stop stop-color="white" stop-opacity="0.2"></stop>
<stop offset="1" stop-color="#B6CDF1"></stop>
</linearGradient>
<linearGradient id="paint8_linear_6605_17633" x1="315.18" y1="644.542" x2="315.18" y2="758.537" gradientUnits="userSpaceOnUse">
<stop stop-color="white" stop-opacity="0.2"></stop>
<stop offset="1" stop-color="#B6CDF1"></stop>
</linearGradient>
<linearGradient id="paint9_linear_6605_17633" x1="684.32" y1="644.542" x2="684.32" y2="758.537" gradientUnits="userSpaceOnUse">
<stop stop-color="white" stop-opacity="0.2"></stop>
<stop offset="1" stop-color="#B6CDF1"></stop>
</linearGradient>
<linearGradient id="paint10_linear_6605_17633" x1="315.68" y1="241.463" x2="315.68" y2="355.458" gradientUnits="userSpaceOnUse">
<stop stop-color="white" stop-opacity="0.2"></stop>
<stop offset="1" stop-color="#B6CDF1"></stop>
</linearGradient>
<linearGradient id="paint11_linear_6605_17633" x1="684.32" y1="241.463" x2="684.32" y2="355.458" gradientUnits="userSpaceOnUse">
<stop stop-color="white" stop-opacity="0.2"></stop>
<stop offset="1" stop-color="#B6CDF1"></stop>
</linearGradient>
</defs><g class="vl" style="animation-delay:0.05s"><path d="M500.001 212.573C640.914 212.573 755.438 341.089 755.438 500C755.437 658.912 640.914 787.428 500.001 787.428C359.088 787.428 244.564 658.913 244.563 500C244.563 341.088 359.088 212.573 500.001 212.573Z" stroke="url(#paint0_linear_6605_17633)" stroke-width="3"></path></g><g class="vl" style="animation-delay:0.23s"><g filter="url(#filter0_d_6605_17633)">
<rect x="146.844" y="414.707" width="170.586" height="170.586" rx="25.1281" fill="url(#paint1_linear_6605_17633)"></rect>
<rect x="146.844" y="414.707" width="170.586" height="170.586" rx="25.1281" stroke="white" stroke-width="1.95803"></rect>
<rect x="155.002" y="422.865" width="154.269" height="154.269" rx="18.4753" fill="url(#paint2_linear_6605_17633)"></rect>
<path d="M243.063 507.284L257.632 492.715L243.063 478.146" stroke="#2C4872" stroke-width="6" stroke-linecap="round" stroke-linejoin="round"></path>
<path d="M257.632 492.715H217.567C213.703 492.715 209.998 494.25 207.265 496.982C204.533 499.714 202.998 503.42 202.998 507.284C202.998 511.148 204.533 514.854 207.265 517.586C209.998 520.318 213.703 521.853 217.567 521.853H221.21" stroke="#2C4872" stroke-width="6" stroke-linecap="round" stroke-linejoin="round"></path>
<rect x="324.93" y="414.707" width="170.586" height="170.586" rx="25.1281" fill="url(#paint3_linear_6605_17633)"></rect>
<rect x="324.93" y="414.707" width="170.586" height="170.586" rx="25.1281" stroke="white" stroke-width="1.95803"></rect>
<rect x="333.088" y="422.865" width="154.269" height="154.269" rx="18.4753" fill="#E31C58" fill-opacity="0.1"></rect>
<path d="M367.04 517.5V482.14H392.572V489.784H376.14V495.972H390.232V503.044H376.14V509.856H392.78V517.5H367.04ZM402.69 517.5V510.688H411.582C412.552 510.688 413.384 510.618 414.078 510.48C414.771 510.306 415.343 510.064 415.794 509.752C416.244 509.405 416.574 508.989 416.782 508.504C416.99 507.984 417.094 507.394 417.094 506.736C417.094 506.077 416.99 505.505 416.782 505.02C416.608 504.5 416.314 504.066 415.898 503.72C415.482 503.373 414.927 503.113 414.234 502.94C413.575 502.732 412.76 502.628 411.79 502.628H398.53V496.544H411.218C411.98 496.544 412.656 496.457 413.246 496.284C413.835 496.076 414.32 495.816 414.702 495.504C415.083 495.157 415.378 494.758 415.586 494.308C415.794 493.822 415.898 493.268 415.898 492.644C415.898 492.02 415.794 491.482 415.586 491.032C415.412 490.546 415.135 490.148 414.754 489.836C414.372 489.524 413.887 489.281 413.298 489.108C412.743 488.934 412.067 488.848 411.27 488.848H398.53V482.14H412.778C414.476 482.14 415.984 482.278 417.302 482.556C418.619 482.798 419.763 483.162 420.734 483.648C421.704 484.133 422.502 484.722 423.126 485.416C423.75 486.109 424.218 486.889 424.53 487.756C424.842 488.588 424.998 489.524 424.998 490.564C424.998 491.742 424.738 492.869 424.218 493.944C423.698 494.984 422.866 495.902 421.722 496.7C420.612 497.462 419.191 498 417.458 498.312V498.468C420.127 498.641 422.242 499.525 423.802 501.12C425.396 502.714 426.194 504.725 426.194 507.152C426.194 508.781 425.899 510.237 425.31 511.52C424.72 512.802 423.871 513.894 422.762 514.796C421.652 515.697 420.266 516.373 418.602 516.824C416.938 517.274 415.031 517.5 412.882 517.5H402.69ZM396.242 517.5V482.14H405.342V517.5H396.242ZM436.592 517.5V482.14H445.692V517.5H436.592ZM426.556 489.732V482.14H455.78V489.732H426.556Z" fill="#F71963"></path>
<rect x="503.024" y="413.981" width="172.038" height="172.038" rx="25.342" fill="url(#paint4_linear_6605_17633)"></rect>
<rect x="503.024" y="413.981" width="172.038" height="172.038" rx="25.342" stroke="white" stroke-width="1.9747"></rect>
<rect x="511.252" y="422.209" width="155.582" height="155.582" rx="18.6326" fill="url(#paint5_linear_6605_17633)"></rect>
<path d="M603.44 487.747C602.831 486.017 601.717 484.509 600.243 483.417C598.769 482.325 597.002 481.7 595.17 481.621H582.917C580.479 481.621 578.142 482.589 576.419 484.312C574.695 486.036 573.727 488.373 573.727 490.81C573.727 493.248 574.695 495.585 576.419 497.308C578.142 499.032 580.479 500 582.917 500H595.17C597.607 500 599.944 500.968 601.668 502.692C603.391 504.415 604.359 506.752 604.359 509.19C604.359 511.627 603.391 513.964 601.668 515.688C599.944 517.411 597.607 518.379 595.17 518.379H582.917C581.084 518.3 579.317 517.674 577.843 516.583C576.369 515.491 575.256 513.983 574.646 512.253" stroke="#98A0B9" stroke-width="6.12644" stroke-linecap="round" stroke-linejoin="round"></path>
<path d="M589.043 472.431V481.621M589.043 518.379V527.569" stroke="#98A0B9" stroke-width="6.12644" stroke-linecap="round" stroke-linejoin="round"></path>
<rect x="682.571" y="414.707" width="170.586" height="170.586" rx="25.1281" fill="url(#paint6_linear_6605_17633)"></rect>
<rect x="682.571" y="414.707" width="170.586" height="170.586" rx="25.1281" stroke="white" stroke-width="1.95803"></rect>
<rect x="690.73" y="422.865" width="154.269" height="154.269" rx="18.4753" fill="url(#paint7_linear_6605_17633)"></rect>
<path d="M756.938 492.715L742.368 507.284L756.938 521.853" stroke="#2C4872" stroke-width="6" stroke-linecap="round" stroke-linejoin="round"></path>
<path d="M742.369 507.284L782.434 507.284C786.298 507.284 790.003 505.749 792.736 503.017C795.468 500.285 797.003 496.579 797.003 492.715C797.003 488.851 795.468 485.145 792.736 482.413C790.003 479.681 786.298 478.146 782.434 478.146L778.791 478.146" stroke="#2C4872" stroke-width="6" stroke-linecap="round" stroke-linejoin="round"></path>
</g></g><g class="vl" style="animation-delay:0.40s"><g filter="url(#filter8_d_6605_17633)" data-figma-bg-blur-radius="11.4904"><rect x="401.023" y="565.086" width="197.954" height="66.3869" rx="33.1935" fill="#F71963" shape-rendering="crispEdges"></rect></g></g><g class="vl" style="animation-delay:0.55s"><g data-figma-bg-blur-radius="11.4904"><path d="M441.428 605.279V589.01H446.931C448.446 589.01 449.682 589.209 450.639 589.608C451.612 590.007 452.338 590.581 452.816 591.331C453.295 592.065 453.534 592.966 453.534 594.034C453.534 595.103 453.295 596.02 452.816 596.786C452.354 597.551 451.636 598.134 450.663 598.532C449.706 598.931 448.486 599.13 447.002 599.13H444.083V596.666H447.002C448.103 596.666 448.94 596.459 449.514 596.044C450.089 595.613 450.376 594.952 450.376 594.058C450.376 593.468 450.24 592.99 449.969 592.623C449.714 592.24 449.331 591.961 448.821 591.785C448.31 591.594 447.68 591.498 446.931 591.498H444.442V605.279H441.428ZM460.014 605.519C458.897 605.519 457.877 605.287 456.951 604.825C456.042 604.362 455.309 603.668 454.75 602.743C454.208 601.818 453.937 600.686 453.937 599.346C453.937 597.99 454.208 596.858 454.75 595.948C455.309 595.039 456.042 594.353 456.951 593.891C457.877 593.412 458.897 593.173 460.014 593.173C461.146 593.173 462.167 593.412 463.076 593.891C464.001 594.353 464.735 595.039 465.277 595.948C465.82 596.858 466.091 597.99 466.091 599.346C466.091 600.686 465.82 601.818 465.277 602.743C464.735 603.668 464.001 604.362 463.076 604.825C462.167 605.287 461.146 605.519 460.014 605.519ZM460.014 603.198C460.652 603.198 461.202 603.046 461.665 602.743C462.127 602.44 462.486 602.002 462.741 601.427C462.997 600.853 463.124 600.159 463.124 599.346C463.124 598.516 462.997 597.823 462.741 597.264C462.486 596.69 462.127 596.259 461.665 595.972C461.202 595.669 460.652 595.518 460.014 595.518C459.392 595.518 458.85 595.669 458.387 595.972C457.924 596.259 457.558 596.69 457.286 597.264C457.031 597.823 456.904 598.516 456.904 599.346C456.904 600.159 457.031 600.853 457.286 601.427C457.558 602.002 457.924 602.44 458.387 602.743C458.85 603.046 459.392 603.198 460.014 603.198ZM467.988 605.279V589.01H470.859V605.279H467.988ZM473.297 605.279V593.412H476.145V605.279H473.297ZM473.609 591.881L475.475 588.244H478.418L475.523 591.881H473.609ZM483.048 605.519C482.315 605.519 481.685 605.423 481.158 605.231C480.632 605.024 480.225 604.689 479.938 604.227C479.667 603.748 479.531 603.118 479.531 602.336V595.087L481.517 593.412H485.656V595.661H477.522V593.891C478.016 593.795 478.431 593.66 478.766 593.484C479.101 593.309 479.38 593.077 479.603 592.79C479.826 592.487 480.002 592.12 480.129 591.69C480.257 591.259 480.337 590.749 480.369 590.159H482.402V601.691C482.402 602.281 482.53 602.679 482.785 602.887C483.04 603.078 483.407 603.174 483.886 603.174C484.269 603.174 484.619 603.142 484.938 603.078C485.257 603.014 485.537 602.959 485.776 602.911L485.465 605.255C485.13 605.319 484.755 605.375 484.34 605.423C483.926 605.487 483.495 605.519 483.048 605.519ZM487.435 605.279V593.412H490.282V605.279H487.435ZM488.894 591.666C488.288 591.666 487.834 591.514 487.531 591.211C487.244 590.908 487.1 590.525 487.1 590.063C487.1 589.584 487.244 589.202 487.531 588.914C487.834 588.611 488.288 588.46 488.894 588.46C489.5 588.46 489.939 588.611 490.21 588.914C490.497 589.202 490.641 589.584 490.641 590.063C490.641 590.525 490.497 590.908 490.21 591.211C489.939 591.514 489.5 591.666 488.894 591.666ZM498.31 605.519C497.449 605.519 496.651 605.391 495.918 605.136C495.2 604.865 494.57 604.474 494.028 603.963C493.501 603.453 493.087 602.815 492.784 602.049C492.496 601.268 492.353 600.367 492.353 599.346C492.353 598.006 492.616 596.882 493.142 595.972C493.685 595.047 494.41 594.353 495.32 593.891C496.245 593.412 497.289 593.173 498.454 593.173C499.411 593.173 500.264 593.325 501.014 593.628C501.763 593.931 502.386 594.393 502.88 595.015C503.39 595.637 503.733 596.419 503.909 597.36L501.133 597.982C501.038 597.392 500.87 596.913 500.631 596.547C500.392 596.164 500.081 595.893 499.698 595.733C499.331 595.558 498.892 595.47 498.382 595.47C497.776 595.47 497.242 595.613 496.779 595.901C496.332 596.188 495.974 596.618 495.702 597.193C495.447 597.767 495.32 598.492 495.32 599.37C495.32 600.072 495.399 600.67 495.559 601.164C495.718 601.659 495.934 602.057 496.205 602.36C496.492 602.648 496.819 602.863 497.186 603.006C497.569 603.15 497.975 603.222 498.406 603.222C498.9 603.222 499.331 603.134 499.698 602.959C500.065 602.767 500.376 602.472 500.631 602.073C500.886 601.675 501.086 601.172 501.229 600.566L503.981 601.068C503.837 602.025 503.518 602.839 503.024 603.509C502.529 604.163 501.883 604.665 501.086 605.016C500.288 605.351 499.363 605.519 498.31 605.519ZM509.031 605.519C508.313 605.519 507.667 605.399 507.093 605.16C506.519 604.904 506.064 604.53 505.729 604.035C505.394 603.525 505.227 602.895 505.227 602.145C505.227 601.491 505.362 600.941 505.633 600.494C505.904 600.048 506.279 599.681 506.758 599.394C507.252 599.107 507.81 598.883 508.433 598.724C509.055 598.564 509.717 598.445 510.418 598.365L513.768 597.934L513.864 599.681L510.801 600.111C510.307 600.175 509.852 600.263 509.437 600.375C509.023 600.486 508.704 600.662 508.48 600.901C508.257 601.124 508.145 601.443 508.145 601.858C508.145 602.368 508.305 602.743 508.624 602.982C508.959 603.206 509.39 603.317 509.916 603.317C510.458 603.317 510.945 603.206 511.375 602.982C511.806 602.759 512.173 602.472 512.476 602.121C512.795 601.754 513.034 601.348 513.194 600.901C513.353 600.454 513.433 600.016 513.433 599.585L513.385 598.054C513.385 597.448 513.281 596.953 513.074 596.57C512.867 596.172 512.572 595.885 512.189 595.709C511.806 595.518 511.351 595.422 510.825 595.422C510.155 595.422 509.573 595.606 509.079 595.972C508.6 596.323 508.305 596.866 508.193 597.599L505.633 596.762C505.841 595.661 506.399 594.792 507.308 594.154C508.233 593.5 509.453 593.173 510.969 593.173C512.053 593.173 512.986 593.365 513.768 593.747C514.549 594.13 515.156 594.704 515.586 595.47C516.017 596.236 516.232 597.193 516.232 598.341V605.279H513.529V601.738H513.481C513.289 602.616 512.97 603.333 512.524 603.892C512.077 604.45 511.551 604.865 510.945 605.136C510.355 605.391 509.717 605.519 509.031 605.519Z" fill="white"></path></g></g><g class="vl" style="animation-delay:0.69s"><g data-figma-bg-blur-radius="11.4904"><path d="M551.271 605.32L549.89 610.719L552.999 609.475L556.109 610.719L554.865 605.244M556.731 602.011C556.731 604.072 555.061 605.743 552.999 605.743C550.938 605.743 549.268 604.072 549.268 602.011C549.268 599.95 550.938 598.279 552.999 598.279C555.061 598.279 556.731 599.95 556.731 602.011Z" stroke="white" stroke-width="1.86595" stroke-linecap="round" stroke-linejoin="round"></path></g><g data-figma-bg-blur-radius="11.4904"><path d="M555.487 595.791C555.487 591.1 555.487 588.754 554.03 587.297C552.572 585.839 550.227 585.839 545.535 585.839H544.292C539.6 585.839 537.255 585.839 535.797 587.297C534.34 588.754 534.34 591.1 534.34 595.791L534.34 600.767C534.34 605.458 534.34 607.804 535.797 609.261C537.255 610.719 539.6 610.719 544.292 610.719H546.779" stroke="white" stroke-width="1.86595" stroke-linecap="round" stroke-linejoin="round"></path></g><g data-figma-bg-blur-radius="11.4904"><path d="M539.938 592.06H549.889M539.938 598.279H545.536" stroke="white" stroke-width="1.86595" stroke-linecap="round" stroke-linejoin="round"></path></g><g filter="url(#filter9_d_6605_17633)"><rect x="233.396" y="645.756" width="163.567" height="111.567" rx="31.1608" fill="url(#paint8_linear_6605_17633)"></rect></g><g><rect x="233.396" y="645.756" width="163.567" height="111.567" rx="31.1608" stroke="white" stroke-width="2.42811"></rect></g></g><g class="vl" style="animation-delay:0.81s"><g><g data-figma-bg-blur-radius="12.4387">
<rect x="245.181" y="657.54" width="139.998" height="87.998" rx="18.3326" fill="white" fill-opacity="0.1"></rect>
<rect x="245.181" y="657.54" width="139.998" height="87.998" rx="18.3326" fill="white" fill-opacity="0.6"></rect>
<rect x="245.181" y="657.54" width="139.998" height="87.998" rx="18.3326" stroke="white" stroke-width="3.33475"></rect>
<path d="M278.298 709.539V691.927H281.561V709.539H278.298ZM288.632 709.539L284.125 701.406H287.466L292.309 709.539H288.632ZM279.256 702.701V700.086H284.436C284.937 700.086 285.377 700.06 285.757 700.008C286.154 699.939 286.499 699.835 286.793 699.697C287.103 699.542 287.362 699.36 287.57 699.153C287.777 698.929 287.932 698.661 288.036 698.35C288.157 698.04 288.217 697.694 288.217 697.314C288.217 696.952 288.157 696.624 288.036 696.33C287.932 696.019 287.777 695.76 287.57 695.553C287.38 695.329 287.129 695.147 286.819 695.009C286.525 694.854 286.18 694.742 285.783 694.673C285.385 694.603 284.937 694.569 284.436 694.569H279.256V691.927H284.488C285.437 691.927 286.292 692.005 287.052 692.16C287.811 692.316 288.476 692.54 289.046 692.834C289.633 693.127 290.108 693.498 290.47 693.947C290.85 694.379 291.135 694.88 291.325 695.45C291.515 696.002 291.61 696.615 291.61 697.288C291.61 697.979 291.515 698.609 291.325 699.179C291.135 699.732 290.85 700.232 290.47 700.681C290.091 701.113 289.616 701.484 289.046 701.795C288.476 702.089 287.811 702.313 287.052 702.468C286.309 702.624 285.463 702.701 284.514 702.701H279.256ZM299.474 709.798C298.472 709.798 297.575 709.651 296.78 709.358C296.003 709.047 295.339 708.607 294.786 708.037C294.251 707.467 293.845 706.785 293.569 705.991C293.292 705.197 293.154 704.299 293.154 703.297C293.154 701.933 293.405 700.742 293.905 699.723C294.423 698.687 295.157 697.884 296.107 697.314C297.074 696.727 298.222 696.434 299.552 696.434C300.76 696.434 301.805 696.675 302.686 697.159C303.566 697.625 304.24 698.324 304.706 699.257C305.189 700.172 305.431 701.303 305.431 702.65C305.431 702.874 305.422 703.03 305.405 703.116C305.405 703.202 305.405 703.297 305.405 703.401H295.977V701.562H302.919L302.219 702.313C302.271 701.519 302.193 700.845 301.986 700.293C301.796 699.74 301.485 699.326 301.054 699.05C300.639 698.756 300.113 698.609 299.474 698.609C298.783 698.609 298.205 698.782 297.739 699.127C297.29 699.473 296.944 699.973 296.703 700.629C296.461 701.286 296.34 702.106 296.34 703.09C296.34 703.815 296.409 704.445 296.547 704.981C296.685 705.516 296.884 705.965 297.143 706.327C297.419 706.69 297.756 706.966 298.153 707.156C298.567 707.329 299.042 707.415 299.578 707.415C300.096 707.415 300.544 707.338 300.924 707.182C301.321 707.01 301.65 706.759 301.909 706.431C302.185 706.086 302.366 705.645 302.452 705.11L305.353 705.732C305.163 706.561 304.809 707.286 304.291 707.907C303.791 708.512 303.134 708.978 302.323 709.306C301.511 709.634 300.562 709.798 299.474 709.798ZM312.229 714.538C311.158 714.538 310.226 714.477 309.432 714.356C308.655 714.236 308.007 714.046 307.489 713.787C306.971 713.545 306.583 713.234 306.324 712.854C306.082 712.492 305.961 712.069 305.961 711.585C305.961 711.084 306.108 710.653 306.402 710.29C306.695 709.928 307.161 709.634 307.8 709.41C308.439 709.185 309.285 709.047 310.338 708.995L310.442 709.151C310.131 709.185 309.855 709.271 309.613 709.41C309.389 709.53 309.216 709.686 309.095 709.876C308.992 710.066 308.94 710.282 308.94 710.523C308.94 710.92 309.069 711.24 309.328 711.482C309.605 711.741 310.002 711.93 310.52 712.051C311.038 712.172 311.659 712.233 312.384 712.233C313.576 712.233 314.534 712.069 315.259 711.741C315.985 711.43 316.347 710.972 316.347 710.368C316.347 709.953 316.183 709.634 315.855 709.41C315.527 709.185 314.966 709.073 314.172 709.073C313.895 709.073 313.602 709.081 313.291 709.099C312.997 709.099 312.687 709.107 312.359 709.125C312.048 709.125 311.737 709.133 311.426 709.151C311.133 709.151 310.856 709.151 310.597 709.151C310.2 709.151 309.838 709.133 309.51 709.099C309.181 709.047 308.888 708.987 308.629 708.917C308.111 708.762 307.705 708.538 307.412 708.244C307.118 707.933 306.971 707.528 306.971 707.027C306.971 706.561 307.109 706.163 307.386 705.835C307.662 705.507 308.085 705.257 308.655 705.084C309.225 704.912 309.95 704.834 310.83 704.851L310.856 704.981C310.563 704.998 310.321 705.058 310.131 705.162C309.958 705.266 309.829 705.386 309.743 705.525C309.656 705.663 309.613 705.809 309.613 705.965C309.613 706.207 309.699 706.397 309.872 706.535C310.062 706.656 310.356 706.725 310.753 706.742C310.977 706.742 311.245 706.742 311.556 706.742C311.884 706.725 312.238 706.707 312.618 706.69C312.997 706.656 313.377 706.638 313.757 706.638C314.137 706.621 314.482 706.612 314.793 706.612C315.846 706.612 316.71 706.733 317.383 706.975C318.074 707.217 318.583 707.588 318.911 708.089C319.257 708.572 319.429 709.202 319.429 709.979C319.429 710.998 319.118 711.844 318.497 712.518C317.892 713.191 317.046 713.692 315.959 714.02C314.871 714.365 313.628 714.538 312.229 714.538ZM312.281 703.064C313.075 703.064 313.671 702.874 314.068 702.494C314.465 702.114 314.664 701.588 314.664 700.914C314.664 700.448 314.577 700.06 314.405 699.749C314.232 699.421 313.964 699.179 313.602 699.024C313.256 698.851 312.816 698.765 312.281 698.765C311.487 698.765 310.874 698.955 310.442 699.335C310.028 699.697 309.82 700.224 309.82 700.914C309.82 701.363 309.915 701.752 310.105 702.08C310.295 702.391 310.571 702.632 310.934 702.805C311.297 702.978 311.746 703.064 312.281 703.064ZM312.384 705.084C311.331 705.084 310.373 704.938 309.51 704.644C308.663 704.35 307.99 703.893 307.489 703.271C306.989 702.65 306.738 701.847 306.738 700.863C306.738 700.103 306.937 699.412 307.334 698.791C307.748 698.169 308.413 697.668 309.328 697.288C310.243 696.891 311.435 696.693 312.902 696.693H318.808V699.076H318.186C317.875 698.592 317.392 698.247 316.736 698.04C316.079 697.832 315.061 697.729 313.679 697.729L313.654 697.755C314.603 697.893 315.372 698.117 315.959 698.428C316.546 698.739 316.969 699.119 317.228 699.568C317.487 699.999 317.616 700.483 317.616 701.018C317.616 701.864 317.383 702.598 316.917 703.219C316.468 703.824 315.846 704.29 315.052 704.618C314.275 704.929 313.386 705.084 312.384 705.084ZM320.689 709.539V696.693H323.771V709.539H320.689ZM322.269 694.802C321.613 694.802 321.121 694.638 320.793 694.31C320.482 693.982 320.326 693.567 320.326 693.067C320.326 692.549 320.482 692.134 320.793 691.824C321.121 691.495 321.613 691.331 322.269 691.331C322.925 691.331 323.4 691.495 323.693 691.824C324.004 692.134 324.16 692.549 324.16 693.067C324.16 693.567 324.004 693.982 323.693 694.31C323.4 694.638 322.925 694.802 322.269 694.802ZM332.462 709.798C331.271 709.798 330.174 709.548 329.173 709.047C328.171 708.546 327.368 707.795 326.764 706.794C326.177 705.792 325.883 704.566 325.883 703.116C325.883 701.648 326.177 700.422 326.764 699.438C327.368 698.454 328.171 697.711 329.173 697.211C330.174 696.693 331.271 696.434 332.462 696.434C333.688 696.434 334.793 696.693 335.777 697.211C336.779 697.711 337.573 698.454 338.16 699.438C338.747 700.422 339.04 701.648 339.04 703.116C339.04 704.566 338.747 705.792 338.16 706.794C337.573 707.795 336.779 708.546 335.777 709.047C334.793 709.548 333.688 709.798 332.462 709.798ZM332.462 707.286C333.153 707.286 333.748 707.122 334.249 706.794C334.767 706.466 335.155 705.991 335.414 705.369C335.691 704.748 335.829 703.996 335.829 703.116C335.829 702.218 335.691 701.467 335.414 700.863C335.155 700.241 334.767 699.775 334.249 699.464C333.748 699.136 333.153 698.972 332.462 698.972C331.789 698.972 331.201 699.136 330.701 699.464C330.2 699.775 329.811 700.241 329.535 700.863C329.259 701.467 329.121 702.218 329.121 703.116C329.121 703.996 329.259 704.748 329.535 705.369C329.811 705.991 330.2 706.466 330.701 706.794C331.201 707.122 331.789 707.286 332.462 707.286ZM331.271 695.035L333.291 691.098H336.476L333.317 695.035H331.271ZM340.971 709.539V696.693H343.924V700.241H343.975C344.165 699.343 344.442 698.618 344.804 698.065C345.184 697.496 345.659 697.081 346.229 696.822C346.799 696.546 347.455 696.408 348.197 696.408C348.922 696.408 349.553 696.511 350.088 696.719C350.64 696.926 351.107 697.237 351.486 697.651C351.866 698.065 352.151 698.592 352.341 699.231C352.531 699.853 352.626 700.595 352.626 701.458V709.539H349.518V701.873C349.518 701.268 349.423 700.75 349.233 700.319C349.043 699.887 348.75 699.559 348.352 699.335C347.955 699.11 347.463 698.998 346.876 698.998C345.944 698.998 345.245 699.257 344.778 699.775C344.312 700.276 344.079 700.975 344.079 701.873V709.539H340.971Z" fill="#142032"></path>
</g></g></g><g class="vl" style="animation-delay:0.92s"><g filter="url(#filter11_d_6605_17633)">
<rect x="602.037" y="645.756" width="164.567" height="111.567" rx="31.1608" fill="url(#paint9_linear_6605_17633)"></rect>
<rect x="602.037" y="645.756" width="164.567" height="111.567" rx="31.1608" stroke="white" stroke-width="2.42811"></rect>
<g data-figma-bg-blur-radius="12.4387">
<rect x="613.821" y="657.54" width="140.998" height="87.998" rx="18.3326" fill="white" fill-opacity="0.1"></rect>
<rect x="613.821" y="657.54" width="140.998" height="87.998" rx="18.3326" fill="white" fill-opacity="0.6"></rect>
<rect x="613.821" y="657.54" width="140.998" height="87.998" rx="18.3326" stroke="white" stroke-width="3.33475"></rect>
<path d="M668.39 709.824C666.957 709.824 665.714 709.625 664.66 709.228C663.624 708.831 662.804 708.235 662.2 707.441C661.596 706.63 661.233 705.594 661.112 704.333L664.246 703.504C664.401 704.437 664.669 705.171 665.049 705.706C665.429 706.224 665.912 706.586 666.499 706.794C667.104 707.001 667.786 707.104 668.545 707.104C669.564 707.104 670.384 706.863 671.006 706.379C671.627 705.879 671.938 705.222 671.938 704.411C671.938 703.962 671.861 703.591 671.705 703.297C671.55 703.004 671.308 702.762 670.98 702.572C670.669 702.382 670.281 702.227 669.814 702.106C669.348 701.968 668.804 701.855 668.183 701.769C667.129 701.596 666.206 701.389 665.411 701.147C664.617 700.906 663.952 700.595 663.417 700.215C662.899 699.835 662.511 699.369 662.252 698.817C661.993 698.247 661.863 697.573 661.863 696.796C661.863 695.76 662.122 694.862 662.64 694.103C663.158 693.326 663.892 692.721 664.842 692.29C665.809 691.858 666.931 691.642 668.209 691.642C669.4 691.642 670.445 691.815 671.343 692.16C672.258 692.488 673 693.006 673.57 693.714C674.157 694.422 674.545 695.329 674.735 696.434L671.99 697.496C671.835 696.684 671.576 696.054 671.213 695.605C670.868 695.139 670.436 694.819 669.918 694.647C669.4 694.457 668.804 694.362 668.131 694.362C667.527 694.362 666.991 694.448 666.525 694.621C666.076 694.793 665.731 695.044 665.489 695.372C665.247 695.683 665.127 696.071 665.127 696.537C665.127 696.934 665.187 697.271 665.308 697.547C665.429 697.806 665.627 698.031 665.904 698.221C666.18 698.411 666.534 698.575 666.965 698.713C667.414 698.834 667.967 698.946 668.623 699.05C669.711 699.205 670.669 699.412 671.498 699.671C672.327 699.913 673.026 700.232 673.596 700.629C674.166 701.009 674.589 701.493 674.865 702.08C675.158 702.667 675.305 703.384 675.305 704.23C675.305 705.421 675.012 706.44 674.425 707.286C673.838 708.115 673.017 708.745 671.964 709.176C670.928 709.608 669.737 709.824 668.39 709.824ZM680.147 704.489L678.748 700.992L679.81 700.863L687.787 691.927H691.724L680.147 704.489ZM677.349 709.539V691.927H680.613V709.539H677.349ZM687.684 709.539L681.364 700.06L683.954 698.506L691.646 709.539H687.684ZM699.463 709.798C698.082 709.798 696.882 709.565 695.863 709.099C694.862 708.633 694.085 707.916 693.532 706.949C692.98 705.965 692.703 704.722 692.703 703.219V691.927H696.018V703.142C696.018 704.022 696.165 704.748 696.459 705.317C696.77 705.87 697.201 706.284 697.754 706.561C698.324 706.82 698.988 706.949 699.748 706.949C700.853 706.949 701.734 706.647 702.39 706.043C703.046 705.438 703.374 704.471 703.374 703.142V691.927H706.508V703.219C706.508 704.722 706.214 705.965 705.627 706.949C705.04 707.916 704.22 708.633 703.167 709.099C702.114 709.565 700.879 709.798 699.463 709.798Z" fill="#142032"></path>
</g>
</g></g><g class="vl" style="animation-delay:1.01s"><g filter="url(#filter13_d_6605_17633)">
<rect x="233.396" y="242.677" width="164.567" height="111.567" rx="31.1608" fill="url(#paint10_linear_6605_17633)"></rect>
<rect x="233.396" y="242.677" width="164.567" height="111.567" rx="31.1608" stroke="white" stroke-width="2.42811"></rect>
<g data-figma-bg-blur-radius="12.4387">
<rect x="245.181" y="254.462" width="140.998" height="87.998" rx="18.3326" fill="white" fill-opacity="0.1"></rect>
<rect x="245.181" y="254.462" width="140.998" height="87.998" rx="18.3326" fill="white" fill-opacity="0.6"></rect>
<rect x="245.181" y="254.462" width="140.998" height="87.998" rx="18.3326" stroke="white" stroke-width="3.33475"></rect>
<path d="M299.749 306.746C298.316 306.746 297.073 306.547 296.02 306.15C294.984 305.753 294.164 305.157 293.559 304.363C292.955 303.552 292.592 302.516 292.471 301.255L295.605 300.426C295.761 301.359 296.028 302.092 296.408 302.628C296.788 303.146 297.272 303.508 297.859 303.716C298.463 303.923 299.145 304.026 299.905 304.026C300.923 304.026 301.744 303.785 302.365 303.301C302.987 302.8 303.298 302.144 303.298 301.333C303.298 300.884 303.22 300.513 303.065 300.219C302.909 299.926 302.667 299.684 302.339 299.494C302.029 299.304 301.64 299.149 301.174 299.028C300.708 298.89 300.164 298.777 299.542 298.691C298.489 298.518 297.565 298.311 296.771 298.069C295.977 297.828 295.312 297.517 294.777 297.137C294.259 296.757 293.87 296.291 293.611 295.738C293.352 295.169 293.223 294.495 293.223 293.718C293.223 292.682 293.482 291.784 294 291.025C294.518 290.248 295.251 289.643 296.201 289.212C297.168 288.78 298.29 288.564 299.568 288.564C300.759 288.564 301.804 288.737 302.702 289.082C303.617 289.41 304.36 289.928 304.929 290.636C305.516 291.344 305.905 292.251 306.095 293.356L303.349 294.417C303.194 293.606 302.935 292.976 302.572 292.527C302.227 292.061 301.795 291.741 301.277 291.568C300.759 291.379 300.164 291.284 299.49 291.284C298.886 291.284 298.351 291.37 297.885 291.543C297.436 291.715 297.09 291.966 296.849 292.294C296.607 292.604 296.486 292.993 296.486 293.459C296.486 293.856 296.546 294.193 296.667 294.469C296.788 294.728 296.987 294.953 297.263 295.143C297.539 295.333 297.893 295.497 298.325 295.635C298.774 295.756 299.326 295.868 299.982 295.971C301.07 296.127 302.029 296.334 302.857 296.593C303.686 296.835 304.385 297.154 304.955 297.551C305.525 297.931 305.948 298.415 306.224 299.002C306.518 299.589 306.665 300.305 306.665 301.151C306.665 302.343 306.371 303.362 305.784 304.208C305.197 305.036 304.377 305.667 303.324 306.098C302.288 306.53 301.096 306.746 299.749 306.746ZM311.506 301.41L310.107 297.914L311.169 297.784L319.147 288.849H323.083L311.506 301.41ZM308.709 306.461V288.849H311.972V306.461H308.709ZM319.043 306.461L312.723 296.982L315.313 295.428L323.006 306.461H319.043ZM330.823 306.72C329.441 306.72 328.241 306.487 327.222 306.021C326.221 305.554 325.444 304.838 324.891 303.871C324.339 302.887 324.063 301.644 324.063 300.141V288.849H327.378V300.064C327.378 300.944 327.525 301.669 327.818 302.239C328.129 302.792 328.561 303.206 329.113 303.482C329.683 303.741 330.348 303.871 331.107 303.871C332.212 303.871 333.093 303.569 333.749 302.964C334.405 302.36 334.733 301.393 334.733 300.064V288.849H337.867V300.141C337.867 301.644 337.574 302.887 336.987 303.871C336.4 304.838 335.579 305.554 334.526 306.021C333.473 306.487 332.238 306.72 330.823 306.72Z" fill="#142032"></path>
</g>
</g></g><g class="vl" style="animation-delay:1.07s"><g filter="url(#filter15_d_6605_17633)"><rect x="602.037" y="242.677" width="164.567" height="111.567" rx="31.1608" fill="url(#paint11_linear_6605_17633)"></rect></g><g><rect x="602.037" y="242.677" width="164.567" height="111.567" rx="31.1608" stroke="white" stroke-width="2.42811"></rect></g></g><g class="vl" style="animation-delay:1.10s"><g><g data-figma-bg-blur-radius="12.4387">
<rect x="613.821" y="254.462" width="140.998" height="87.998" rx="18.3326" fill="white" fill-opacity="0.1"></rect>
<rect x="613.821" y="254.462" width="140.998" height="87.998" rx="18.3326" fill="white" fill-opacity="0.6"></rect>
<rect x="613.821" y="254.462" width="140.998" height="87.998" rx="18.3326" stroke="white" stroke-width="3.33475"></rect>
<path d="M647.438 306.461V288.849H650.702V306.461H647.438ZM657.772 306.461L653.266 298.328H656.607L661.45 306.461H657.772ZM648.396 299.623V297.007H653.576C654.077 297.007 654.517 296.982 654.897 296.93C655.294 296.861 655.64 296.757 655.933 296.619C656.244 296.464 656.503 296.282 656.71 296.075C656.918 295.851 657.073 295.583 657.177 295.272C657.297 294.961 657.358 294.616 657.358 294.236C657.358 293.874 657.297 293.546 657.177 293.252C657.073 292.941 656.918 292.682 656.71 292.475C656.52 292.251 656.27 292.069 655.959 291.931C655.666 291.776 655.32 291.663 654.923 291.594C654.526 291.525 654.077 291.491 653.576 291.491H648.396V288.849H653.628C654.578 288.849 655.433 288.927 656.192 289.082C656.952 289.238 657.617 289.462 658.187 289.756C658.774 290.049 659.249 290.42 659.611 290.869C659.991 291.301 660.276 291.802 660.466 292.371C660.656 292.924 660.751 293.537 660.751 294.21C660.751 294.901 660.656 295.531 660.466 296.101C660.276 296.654 659.991 297.154 659.611 297.603C659.231 298.035 658.756 298.406 658.187 298.717C657.617 299.01 656.952 299.235 656.192 299.39C655.45 299.546 654.604 299.623 653.654 299.623H648.396ZM668.615 306.72C667.613 306.72 666.715 306.573 665.921 306.28C665.144 305.969 664.479 305.529 663.927 304.959C663.391 304.389 662.986 303.707 662.709 302.913C662.433 302.118 662.295 301.221 662.295 300.219C662.295 298.855 662.545 297.664 663.046 296.645C663.564 295.609 664.298 294.806 665.248 294.236C666.215 293.649 667.363 293.356 668.692 293.356C669.901 293.356 670.946 293.597 671.826 294.081C672.707 294.547 673.38 295.246 673.846 296.179C674.33 297.094 674.572 298.225 674.572 299.572C674.572 299.796 674.563 299.951 674.546 300.038C674.546 300.124 674.546 300.219 674.546 300.323H665.118V298.484H672.059L671.36 299.235C671.412 298.441 671.334 297.767 671.127 297.215C670.937 296.662 670.626 296.248 670.194 295.971C669.78 295.678 669.253 295.531 668.615 295.531C667.924 295.531 667.345 295.704 666.879 296.049C666.43 296.395 666.085 296.895 665.843 297.551C665.602 298.208 665.481 299.028 665.481 300.012C665.481 300.737 665.55 301.367 665.688 301.903C665.826 302.438 666.025 302.887 666.284 303.249C666.56 303.612 666.897 303.888 667.294 304.078C667.708 304.251 668.183 304.337 668.718 304.337C669.236 304.337 669.685 304.259 670.065 304.104C670.462 303.931 670.79 303.681 671.049 303.353C671.325 303.008 671.507 302.567 671.593 302.032L674.494 302.654C674.304 303.482 673.95 304.208 673.432 304.829C672.931 305.434 672.275 305.9 671.464 306.228C670.652 306.556 669.702 306.72 668.615 306.72ZM681.37 311.46C680.299 311.46 679.367 311.399 678.572 311.278C677.795 311.157 677.148 310.968 676.63 310.709C676.112 310.467 675.723 310.156 675.464 309.776C675.223 309.414 675.102 308.99 675.102 308.507C675.102 308.006 675.249 307.575 675.542 307.212C675.836 306.849 676.302 306.556 676.941 306.331C677.58 306.107 678.426 305.969 679.479 305.917L679.583 306.072C679.272 306.107 678.995 306.193 678.754 306.331C678.529 306.452 678.357 306.608 678.236 306.798C678.132 306.988 678.08 307.203 678.08 307.445C678.08 307.842 678.21 308.162 678.469 308.403C678.745 308.662 679.142 308.852 679.66 308.973C680.178 309.094 680.8 309.155 681.525 309.155C682.716 309.155 683.675 308.99 684.4 308.662C685.125 308.352 685.488 307.894 685.488 307.29C685.488 306.875 685.324 306.556 684.996 306.331C684.668 306.107 684.106 305.995 683.312 305.995C683.036 305.995 682.742 306.003 682.432 306.021C682.138 306.021 681.827 306.029 681.499 306.047C681.188 306.047 680.878 306.055 680.567 306.072C680.273 306.072 679.997 306.072 679.738 306.072C679.341 306.072 678.978 306.055 678.65 306.021C678.322 305.969 678.029 305.908 677.77 305.839C677.252 305.684 676.846 305.459 676.552 305.166C676.259 304.855 676.112 304.449 676.112 303.949C676.112 303.482 676.25 303.085 676.526 302.757C676.803 302.429 677.226 302.179 677.795 302.006C678.365 301.833 679.09 301.756 679.971 301.773L679.997 301.903C679.703 301.92 679.462 301.98 679.272 302.084C679.099 302.187 678.97 302.308 678.883 302.446C678.797 302.585 678.754 302.731 678.754 302.887C678.754 303.128 678.84 303.318 679.013 303.457C679.203 303.577 679.496 303.646 679.893 303.664C680.118 303.664 680.385 303.664 680.696 303.664C681.024 303.646 681.378 303.629 681.758 303.612C682.138 303.577 682.518 303.56 682.898 303.56C683.278 303.543 683.623 303.534 683.934 303.534C684.987 303.534 685.85 303.655 686.524 303.897C687.214 304.139 687.724 304.51 688.052 305.011C688.397 305.494 688.57 306.124 688.57 306.901C688.57 307.92 688.259 308.766 687.637 309.439C687.033 310.113 686.187 310.614 685.099 310.942C684.011 311.287 682.768 311.46 681.37 311.46ZM681.421 299.986C682.216 299.986 682.811 299.796 683.209 299.416C683.606 299.036 683.804 298.51 683.804 297.836C683.804 297.37 683.718 296.982 683.545 296.671C683.373 296.343 683.105 296.101 682.742 295.946C682.397 295.773 681.957 295.687 681.421 295.687C680.627 295.687 680.014 295.877 679.583 296.256C679.168 296.619 678.961 297.146 678.961 297.836C678.961 298.285 679.056 298.674 679.246 299.002C679.436 299.313 679.712 299.554 680.075 299.727C680.437 299.9 680.886 299.986 681.421 299.986ZM681.525 302.006C680.472 302.006 679.513 301.859 678.65 301.566C677.804 301.272 677.131 300.815 676.63 300.193C676.129 299.572 675.879 298.769 675.879 297.784C675.879 297.025 676.077 296.334 676.475 295.712C676.889 295.091 677.554 294.59 678.469 294.21C679.384 293.813 680.575 293.615 682.043 293.615H687.948V295.997H687.327C687.016 295.514 686.532 295.169 685.876 294.961C685.22 294.754 684.201 294.651 682.82 294.651L682.794 294.676C683.744 294.815 684.512 295.039 685.099 295.35C685.686 295.661 686.109 296.041 686.368 296.489C686.627 296.921 686.757 297.405 686.757 297.94C686.757 298.786 686.524 299.52 686.058 300.141C685.609 300.746 684.987 301.212 684.193 301.54C683.416 301.851 682.527 302.006 681.525 302.006ZM689.83 306.461V293.615H692.912V306.461H689.83ZM691.41 291.724C690.753 291.724 690.261 291.56 689.933 291.232C689.622 290.904 689.467 290.489 689.467 289.989C689.467 289.471 689.622 289.056 689.933 288.745C690.261 288.417 690.753 288.253 691.41 288.253C692.066 288.253 692.54 288.417 692.834 288.745C693.145 289.056 693.3 289.471 693.3 289.989C693.3 290.489 693.145 290.904 692.834 291.232C692.54 291.56 692.066 291.724 691.41 291.724ZM701.603 306.72C700.411 306.72 699.315 306.47 698.313 305.969C697.312 305.468 696.509 304.717 695.905 303.716C695.317 302.714 695.024 301.488 695.024 300.038C695.024 298.57 695.317 297.344 695.905 296.36C696.509 295.376 697.312 294.633 698.313 294.133C699.315 293.615 700.411 293.356 701.603 293.356C702.828 293.356 703.934 293.615 704.918 294.133C705.919 294.633 706.713 295.376 707.301 296.36C707.888 297.344 708.181 298.57 708.181 300.038C708.181 301.488 707.888 302.714 707.301 303.716C706.713 304.717 705.919 305.468 704.918 305.969C703.934 306.47 702.828 306.72 701.603 306.72ZM701.603 304.208C702.293 304.208 702.889 304.044 703.39 303.716C703.908 303.387 704.296 302.913 704.555 302.291C704.831 301.669 704.97 300.918 704.97 300.038C704.97 299.14 704.831 298.389 704.555 297.784C704.296 297.163 703.908 296.697 703.39 296.386C702.889 296.058 702.293 295.894 701.603 295.894C700.929 295.894 700.342 296.058 699.841 296.386C699.341 296.697 698.952 297.163 698.676 297.784C698.4 298.389 698.261 299.14 698.261 300.038C698.261 300.918 698.4 301.669 698.676 302.291C698.952 302.913 699.341 303.387 699.841 303.716C700.342 304.044 700.929 304.208 701.603 304.208ZM700.411 291.957L702.431 288.02H705.617L702.457 291.957H700.411ZM710.112 306.461V293.615H713.064V297.163H713.116C713.306 296.265 713.582 295.54 713.945 294.987C714.325 294.417 714.8 294.003 715.369 293.744C715.939 293.468 716.595 293.33 717.338 293.33C718.063 293.33 718.693 293.433 719.228 293.64C719.781 293.848 720.247 294.158 720.627 294.573C721.007 294.987 721.292 295.514 721.482 296.153C721.672 296.774 721.767 297.517 721.767 298.38V306.461H718.659V298.795C718.659 298.19 718.564 297.672 718.374 297.241C718.184 296.809 717.89 296.481 717.493 296.256C717.096 296.032 716.604 295.92 716.017 295.92C715.084 295.92 714.385 296.179 713.919 296.697C713.453 297.197 713.22 297.897 713.22 298.795V306.461H710.112Z" fill="#142032"></path>
</g></g></g></svg>